<?xml version="1.0" standalone="no"?>
<!DOCTYPE svg PUBLIC "-//W3C//DTD SVG 20010904//EN"
 "http://www.w3.org/TR/2001/REC-SVG-20010904/DTD/svg10.dtd">
<svg version="1.0" xmlns="http://www.w3.org/2000/svg"
 width="640.000000pt" height="640.000000pt" viewBox="0 0 640.000000 640.000000"
 preserveAspectRatio="xMidYMid meet">
<metadata>
Created by potrace 1.11, written by Peter Selinger 2001-2013
</metadata>
<g transform="translate(0.000000,640.000000) scale(0.100000,-0.100000)"
fill="#000000" stroke="none">
<path d="M3310 5650 c-29 -16 -167 -33 -315 -37 -82 -3 -153 -9 -156 -14 -3
-5 -38 -18 -78 -29 -40 -11 -95 -32 -123 -46 -60 -31 -151 -59 -238 -74 -36
-6 -88 -23 -117 -37 -44 -21 -60 -24 -103 -18 -55 8 -61 2 -27 -26 12 -10 16
-18 10 -19 -7 0 -13 -9 -13 -19 0 -11 -15 -30 -32 -43 -18 -12 -61 -46 -94
-75 -38 -32 -91 -63 -140 -84 -92 -37 -109 -49 -71 -49 15 0 27 -4 27 -8 0
-19 -83 -118 -111 -134 -17 -9 -53 -19 -80 -23 -67 -9 -69 -21 -6 -29 42 -6
49 -10 37 -19 -8 -7 -24 -28 -34 -47 -11 -19 -35 -48 -53 -64 -18 -16 -33 -34
-33 -40 -1 -6 -21 -31 -45 -56 -50 -50 -54 -60 -25 -67 25 -7 25 -10 2 -48
-33 -54 -82 -213 -81 -263 0 -35 3 -42 9 -27 6 15 9 5 9 -35 1 -36 8 -65 20
-84 14 -22 17 -35 10 -58 -11 -39 9 -191 33 -247 10 -24 25 -86 34 -139 8 -52
20 -104 26 -115 6 -12 15 -57 20 -101 6 -57 14 -86 28 -101 11 -12 20 -29 20
-38 0 -9 7 -17 16 -17 8 0 22 -17 30 -37 9 -21 26 -51 39 -68 12 -16 25 -40
29 -52 7 -23 36 -33 36 -13 0 6 3 10 8 10 4 0 16 -30 26 -67 11 -38 39 -107
63 -155 54 -108 92 -141 200 -169 111 -30 388 -38 533 -15 125 20 169 38 238
101 61 55 108 145 167 320 21 63 48 121 61 135 23 23 31 25 119 25 88 0 96 -2
119 -25 15 -15 43 -78 71 -160 26 -74 59 -157 73 -185 34 -63 114 -143 173
-172 133 -65 554 -73 729 -12 50 17 97 54 126 100 30 48 91 196 100 245 8 41
15 41 46 -6 13 -19 33 -37 43 -39 19 -3 19 -2 3 16 -23 25 -24 105 -3 123 8 7
15 18 15 24 0 6 7 23 14 38 8 16 18 49 21 75 4 27 15 71 25 100 14 37 17 60
10 82 -6 22 -5 33 7 42 9 8 13 23 10 38 -3 15 1 35 9 46 10 13 13 32 9 55 -7
42 15 96 32 79 8 -8 13 -1 18 23 13 69 38 175 52 230 23 82 13 239 -20 341
-14 42 -22 77 -19 77 3 0 14 -7 24 -17 30 -27 33 -6 5 34 -14 21 -38 67 -53
103 -15 36 -31 69 -36 75 -4 5 -8 20 -8 34 0 13 -8 33 -17 43 -15 17 -15 19 3
33 19 15 19 15 0 26 -11 7 -36 27 -55 45 -29 26 -34 35 -23 45 17 18 15 27 -9
34 -28 9 -89 64 -89 80 0 7 12 18 28 23 l27 10 -29 1 c-34 1 -93 38 -102 64
-6 20 -24 23 -24 5 0 -7 -6 -4 -12 6 -8 15 -7 21 6 28 25 14 19 29 -9 22 -27
-7 -66 25 -100 84 -11 17 -26 33 -35 33 -8 1 -24 2 -35 3 -10 1 -25 12 -31 25
-14 28 -40 45 -54 36 -6 -4 -25 3 -43 13 -17 11 -52 28 -77 38 -25 10 -67 34
-94 53 -26 19 -60 36 -75 37 -35 4 -128 37 -171 62 -34 20 -120 42 -150 39
-19 -2 -99 20 -123 34 -13 7 -23 7 -33 -2 -18 -15 -32 -3 -16 13 21 21 13 26
-24 13 -38 -13 -74 -10 -74 6 0 11 -10 11 -30 -1z m382 -1308 c7 -45 15 -82
19 -82 11 0 19 42 19 108 0 34 4 62 9 62 11 0 31 -78 31 -119 0 -17 5 -31 10
-31 10 0 7 44 -7 93 -8 32 12 17 39 -28 15 -25 33 -44 40 -43 7 2 14 -7 16
-20 5 -32 22 -17 22 19 0 48 17 24 25 -34 10 -70 21 -91 30 -52 28 136 55 153
69 44 8 -58 26 -65 27 -11 l1 37 13 -40 c13 -42 14 -41 37 28 15 45 32 53 36
17 6 -58 11 -67 37 -67 23 0 25 3 25 48 0 58 15 65 25 12 4 -21 15 -52 26 -69
10 -17 19 -42 20 -55 0 -13 3 -18 6 -11 11 28 21 8 28 -60 4 -40 7 -79 8 -87
0 -10 4 -9 13 4 11 15 15 12 34 -27 12 -23 32 -63 45 -88 13 -25 24 -55 24
-68 1 -13 8 -36 16 -53 11 -20 15 -51 13 -97 -3 -65 -4 -67 -28 -64 -14 2
-235 6 -491 9 -410 4 -474 3 -530 -11 -80 -21 -105 -37 -123 -80 -13 -32 -19
-35 -69 -41 -72 -9 -94 -1 -112 41 -18 44 -63 70 -147 84 -83 14 -950 7 -1013
-8 -22 -5 -52 -13 -67 -17 l-28 -7 6 63 c6 66 20 107 42 124 7 6 17 36 21 68
4 32 12 62 18 68 5 5 8 32 5 59 -8 86 18 136 36 68 l8 -33 13 50 c15 61 46
123 73 147 25 21 38 15 38 -18 0 -44 18 -25 40 42 25 73 48 77 31 6 -5 -24 -5
-39 0 -36 5 3 9 12 9 19 0 8 6 12 13 10 8 -4 19 13 30 45 21 60 37 65 37 11 0
-21 6 -51 14 -66 l14 -27 32 64 c35 70 76 128 90 128 5 0 2 -21 -6 -47 -8 -27
-17 -61 -21 -77 -10 -49 12 -22 36 43 12 32 29 65 38 72 17 15 17 19 -2 -83
-10 -49 6 -50 35 -3 22 36 48 49 35 18 -4 -10 -10 -28 -12 -41 -4 -17 -2 -21
11 -16 9 3 16 1 16 -5 0 -25 22 -7 60 49 43 63 60 69 60 21 0 -51 13 -42 51
37 37 74 55 79 25 7 -9 -21 -11 -37 -5 -40 5 -4 13 5 18 18 17 43 35 45 28 4
-4 -24 0 -48 10 -69 l16 -32 17 52 c27 83 54 104 65 52 6 -28 7 -29 30 -14 12
8 25 24 28 35 11 40 29 9 23 -35 -4 -24 -4 -50 -1 -58 15 -39 84 21 132 115
30 59 44 48 18 -16 -15 -38 -45 -126 -45 -136 0 -15 36 32 57 73 25 50 82 125
94 126 11 0 21 -51 28 -140 l6 -85 59 72 c32 40 62 71 66 68 5 -3 13 2 18 12
8 14 12 10 21 -23 6 -21 11 -53 11 -71 0 -17 4 -34 9 -38 15 -8 27 21 46 112
20 94 39 119 77 104 30 -11 43 -59 34 -125 l-6 -41 19 40 c11 22 20 52 20 67
1 15 6 39 13 53 18 41 36 11 50 -83z m-766 41 c-5 -12 -10 -13 -17 -6 -8 8 -7
18 2 34 12 21 14 22 17 6 2 -10 1 -25 -2 -34z m364 -2 c0 -62 -10 -112 -21
-105 -10 6 -12 137 -2 147 16 17 23 4 23 -42z m994 -197 c3 -8 2 -12 -4 -9 -6
3 -10 10 -10 16 0 14 7 11 14 -7z m-1220 -662 c7 -15 16 -46 19 -70 7 -60 -18
-38 -27 23 -4 24 -17 56 -28 71 l-21 27 21 -12 c12 -6 28 -24 36 -39z m281 28
c-10 -11 -23 -20 -29 -20 -6 1 0 10 13 20 30 26 39 26 16 0z m-540 -10 c147
-17 179 -48 171 -165 -12 -185 -114 -414 -223 -504 -47 -38 -103 -57 -218 -72
-104 -13 -344 -7 -422 12 -73 17 -141 72 -175 139 -34 68 -68 232 -75 368 -5
91 -4 104 13 123 40 45 141 83 258 98 91 12 567 12 671 1z m1515 -14 c87 -22
165 -63 179 -93 14 -29 14 -141 1 -214 -5 -30 -14 -83 -20 -119 -35 -194 -111
-275 -284 -299 -176 -25 -439 -5 -531 39 -93 45 -187 192 -240 375 -32 109
-42 219 -23 254 37 70 112 80 543 76 249 -2 323 -6 375 -19z m195 -36 c22 -23
29 -40 31 -82 l3 -53 -14 54 c-7 30 -25 66 -41 82 -15 16 -23 29 -18 29 6 0
23 -13 39 -30z m-2740 -100 c0 -48 -2 -55 -20 -55 -16 0 -21 8 -23 44 -4 54 3
73 25 69 15 -3 18 -14 18 -58z m2869 12 c-1 -45 -19 -76 -32 -55 -4 6 -6 32
-4 58 3 36 8 45 21 43 12 -3 16 -14 15 -46z m-2808 2 c-4 -14 -9 -24 -12 -21
-3 2 -2 17 2 31 3 15 9 25 11 22 3 -3 2 -17 -1 -32z"/>
<path d="M3388 4291 c-5 -18 -8 -50 -7 -70 l1 -36 9 33 c6 19 9 50 7 70 l-3
37 -7 -34z"/>
<path d="M2425 3421 c-16 -4 -29 -13 -27 -19 1 -7 -7 -32 -19 -57 l-21 -45 38
-43 c41 -46 69 -59 97 -45 10 5 27 6 39 2 14 -4 18 -2 14 5 -4 6 -2 11 4 11 6
0 10 -10 8 -22 -5 -33 49 -45 78 -17 13 12 26 19 31 16 13 -8 39 16 50 48 l10
30 -48 2 c-108 5 -167 82 -64 83 17 0 37 5 45 10 13 8 13 12 -3 27 -14 14 -36
18 -110 20 -51 1 -105 -2 -122 -6z"/>
<path d="M3757 3417 c-30 -10 -44 -23 -64 -60 l-26 -47 19 -35 c25 -46 51 -63
92 -59 19 2 41 0 50 -6 10 -5 12 -10 5 -10 -7 0 -13 -4 -13 -10 0 -13 40 -13
95 1 45 11 120 72 110 89 -3 6 -28 8 -55 5 -39 -4 -50 -2 -50 9 0 9 -13 16
-32 18 -25 2 -34 8 -36 24 -4 26 32 38 84 28 30 -6 36 -4 41 15 3 11 12 21 21
21 13 0 13 3 4 12 -17 17 -197 20 -245 5z"/>
<path d="M3457 1533 c-15 -14 -5 -39 49 -119 l56 -83 -12 -108 c-12 -114 -19
-147 -45 -228 -9 -27 -20 -66 -26 -85 -6 -19 -26 -69 -45 -111 -27 -61 -35
-92 -40 -160 -3 -46 -12 -113 -20 -149 -9 -39 -18 -152 -22 -278 l-7 -212 666
0 666 0 1 43 c1 91 -50 312 -139 601 -27 88 -49 168 -49 177 0 10 -12 31 -26
46 -14 15 -41 56 -60 90 -39 68 -184 214 -241 241 -24 12 -43 34 -66 76 -18
34 -51 80 -74 104 -36 39 -45 43 -80 40 -102 -8 -287 24 -338 58 -11 8 -26 14
-33 14 -8 0 -27 11 -44 25 -29 24 -58 32 -71 18z"/>
<path d="M2860 1464 c-51 -24 -62 -26 -150 -20 -164 9 -266 -21 -340 -100 -57
-62 -71 -94 -55 -124 12 -23 11 -25 -78 -78 -109 -65 -165 -113 -216 -184 -47
-65 -91 -151 -91 -176 0 -11 -13 -46 -30 -78 -16 -32 -30 -67 -30 -76 0 -9
-13 -59 -29 -110 -25 -80 -91 -343 -120 -475 l-9 -43 756 0 755 0 -7 205 c-4
122 -12 223 -21 252 -7 26 -16 73 -20 103 -17 145 -76 300 -151 398 -49 65
-142 259 -154 321 -10 54 -10 55 31 118 37 56 45 93 22 93 -4 0 -33 -12 -63
-26z"/>
</g>
</svg>
